<svg xmlns="http://www.w3.org/2000/svg" xmlns:xlink="http://www.w3.org/1999/xlink" width="74" height="74" viewBox="0 0 74 74"><defs><style>.a{fill:#38b5e8;}.b{fill:#fff;}.c{filter:url(#a);}</style><filter id="a" x="0" y="0" width="74" height="74" filterUnits="userSpaceOnUse"><feOffset dy="2" input="SourceAlpha"/><feGaussianBlur stdDeviation="3" result="b"/><feFlood flood-opacity="0.2"/><feComposite operator="in" in2="b"/><feComposite in="SourceGraphic"/></filter></defs><g transform="translate(9 7)"><g class="c" transform="matrix(1, 0, 0, 1, -9, -7)"><circle class="a" cx="28" cy="28" r="28" transform="translate(9 7)"/></g><path class="b" d="M9.7,18.43h7.62a.838.838,0,0,0,.615-.255.9.9,0,0,0-.645-1.545H9.67a.838.838,0,0,0-.615.255A.9.9,0,0,0,9.7,18.43Zm0-3.9H22.33a.838.838,0,0,0,.615-.255A.9.9,0,0,0,22.3,12.73H9.67a.838.838,0,0,0-.615.255A.9.9,0,0,0,9.7,14.53Zm0-3.9H22.33a.838.838,0,0,0,.615-.255A.9.9,0,0,0,22.3,8.83H9.67a.838.838,0,0,0-.615.255A.9.9,0,0,0,9.7,10.63ZM4,25.84V5.8a1.744,1.744,0,0,1,.54-1.245A1.7,1.7,0,0,1,5.8,4H26.2a1.722,1.722,0,0,1,1.245.555A1.722,1.722,0,0,1,28,5.8V21.4a1.9,1.9,0,0,1-1.8,1.8H8.8L5.53,26.47a.833.833,0,0,1-.975.2A.822.822,0,0,1,4,25.84Zm1.8-2.19L8.05,21.4H26.2V5.8H5.8ZM5.8,5.8v0Z" transform="translate(12 12.628)"/></g></svg>