<svg xmlns="http://www.w3.org/2000/svg" xmlns:xlink="http://www.w3.org/1999/xlink" width="109.791" height="39.4" viewBox="0 0 109.791 39.4"><defs><style>.a{fill:none;}.b{clip-path:url(#a);}.c{fill:#fff;}</style><clipPath id="a"><rect class="a" width="109.791" height="39.4"/></clipPath></defs><g class="b"><path class="c" d="M35.237,13.805a2.437,2.437,0,0,1-1.419,2.322L27.754,19.61l-2.967,1.807-8.515,4.9V22.836l5.548-3.1,3.1-1.806,7.1-4.129L13.691,3.355V8.515L10.6,6.709v-4A2.646,2.646,0,0,1,13.3,0a2.938,2.938,0,0,1,1.419.388l19.095,11.1a2.569,2.569,0,0,1,1.419,2.322" transform="translate(-0.531 0)"/><path class="c" d="M35.237,26.41a2.437,2.437,0,0,1-1.419,2.322l-19.095,11.1a2.6,2.6,0,0,1-1.419.388,2.646,2.646,0,0,1-2.709-2.71V17.25l3.1,1.807v17.8L31.883,26.41,27.237,23.7l3.1-1.806,3.613,2.064a2.936,2.936,0,0,1,1.29,2.452" transform="translate(-0.531 -0.865)"/></g></svg>