<svg xmlns="http://www.w3.org/2000/svg" width="62" height="36" viewBox="0 0 62 36"><defs><style>.a{opacity:0.501;}.b{fill:#0a1a27;}</style></defs><g class="a"><g transform="translate(51 14)"><path class="b" d="M8.1,11.6,2.6,6.041,4.026,4.6,8.1,8.718,12.174,4.6,13.6,6.041Z" transform="translate(-2.6 -4.6)"/></g><path class="b" d="M10.39,32.125a25.917,25.917,0,0,1,5.625-3.038A16.745,16.745,0,0,1,22,28.03a16.928,16.928,0,0,1,6.007,1.058,25.711,25.711,0,0,1,5.648,3.038,15.8,15.8,0,0,0,2.813-4.905A16.264,16.264,0,0,0,37.3,22,14.991,14.991,0,0,0,22,6.7,14.991,14.991,0,0,0,6.7,22a15.873,15.873,0,0,0,.855,5.22A16.2,16.2,0,0,0,10.39,32.125ZM22,23.35a6.071,6.071,0,0,1-6.165-6.165A6.071,6.071,0,0,1,22,11.02a6.071,6.071,0,0,1,6.165,6.165A6.071,6.071,0,0,1,22,23.35ZM22,40a17.417,17.417,0,0,1-6.975-1.417,18.135,18.135,0,0,1-9.607-9.608A17.925,17.925,0,0,1,5.418,15a18.2,18.2,0,0,1,9.607-9.585A17.925,17.925,0,0,1,29,5.418,18.258,18.258,0,0,1,38.583,15a17.925,17.925,0,0,1,0,13.972A18.2,18.2,0,0,1,29,38.583,17.368,17.368,0,0,1,22,40Zm0-2.7a16.5,16.5,0,0,0,4.838-.72,14.375,14.375,0,0,0,4.657-2.52,19.586,19.586,0,0,0-4.68-2.475,13.986,13.986,0,0,0-9.63,0A19.586,19.586,0,0,0,12.5,34.06a14.375,14.375,0,0,0,4.657,2.52A16.5,16.5,0,0,0,22,37.3Zm0-16.65a3.315,3.315,0,0,0,3.465-3.465,3.466,3.466,0,1,0-6.93,0A3.315,3.315,0,0,0,22,20.65ZM22,17.185ZM22,34.015Z" transform="translate(-4 -4)"/></g></svg>